<svg xmlns="http://www.w3.org/2000/svg" width="452.76" height="397.114" viewBox="0 0 452.76 397.114"><g transform="translate(-601.844 -225.5)"><path d="M-445.355-355.812-218.975,41.3,7.4-355.812H-37.871l-181.1,317.691-155.75-272.564h57.953l97.8,173.286L-95.825-355.812H-141.1l-77.875,138.99-77.875-138.99Z" transform="translate(1047.2 581.313)" fill="#006cff"/><path d="M-682.054,3.258c9.582-9.334,20.99-18.629,32.6-25.428L-500.95,241.187l94.174-165.279c4.087,14.419,5.433,29.673,5.433,45.406a174.093,174.093,0,0,1-1.811,27.244l-57.953,99.894c-18.019,15.133-38.237,26.346-61.575,32.693Zm83.308-36.325h-27.166a169.813,169.813,0,0,1,59.764-10.9c2.221,0,5.044-.087,7.244,0L-500.95,61.378-462.918-7.64c10.6,8.6,20.774,18.123,28.977,29.06L-500.95,141.293Z" transform="translate(1329.175 303.875)" fill="#fff" opacity="0.15"/></g></svg>